<?xml version="1.0" encoding="utf-8"?>
<svg xmlns="http://www.w3.org/2000/svg" version="1.0" width="814px" height="783px" viewBox="227 218 814 783" preserveAspectRatio="xMidYMid meet">
 <g fill="#0d1f36">
  <path d="M994.38 999.40 c-9.31 -2.94 -16.04 -8.69 -60.74 -52.54 -30.25 -29.64 -48.13 -46.29 -49.96 -46.54 -1.84 -0.24 -6.49 2.08 -13.10 6.49 -32.33 21.55 -69.93 33.43 -110.09 34.53 -57.07 1.71 -110.21 -18.37 -150.63 -56.82 -33.68 -31.96 -53.76 -67.84 -63.31 -112.91 -3.06 -14.08 -3.31 -17.88 -3.31 -42.37 -0.12 -23.27 0.37 -28.90 2.69 -40.90 11.27 -56.21 42.13 -103.48 89.27 -137.16 13.47 -9.67 41.27 -23.27 57.31 -28.17 24.61 -7.47 30 -8.08 66.74 -8.08 32.57 0 34.04 0.12 46.78 3.31 86.58 22.04 149.40 93.68 160.30 182.59 2.08 17.14 0.86 49.35 -2.57 66.37 -4.78 24.49 -16.16 54.25 -27.43 72.50 l-3.18 5.02 33.31 31.72 c18.37 17.51 40.41 38.33 49.11 46.41 17.02 15.80 20.45 20.21 23.63 29.88 7.47 22.90 -10.53 48 -34.41 47.64 -4.04 0 -8.69 -0.49 -10.41 -0.98z m-210.51 -109.85 c31.72 -6 59.76 -20.33 82.05 -41.88 19.59 -18.74 32.33 -37.60 41.39 -60.86 8.20 -20.94 10.53 -34.41 10.53 -60.01 -0.12 -24.74 -1.59 -34.29 -8.82 -54.98 -7.84 -22.66 -19.96 -42.25 -36.86 -59.76 -23.51 -24.37 -50.09 -39.31 -83.40 -46.54 -16.78 -3.80 -47.15 -3.80 -64.05 0 -33.92 7.47 -60.86 22.04 -84.25 45.43 -31.11 31.23 -47.15 67.97 -48.62 111.56 -0.98 28.17 3.80 52.05 15.06 75.80 21.31 45.19 62.94 78.74 110.83 89.40 15.92 3.55 15.31 3.43 36.74 3.67 12.98 0.12 22.53 -0.49 29.39 -1.84z" />
  <path d="M322.32 963.65 c-31.84 -4.16 -60.86 -22.17 -77.76 -48.49 -6.49 -10.04 -9.92 -17.51 -13.47 -29.76 l-2.69 -9.18 -0.37 -285.33 c-0.24 -257.54 -0.12 -286.31 1.59 -295.13 5.88 -29.02 24.86 -53.76 51.43 -66.62 22.66 -11.14 -8.69 -10.04 317.79 -10.78 269.66 -0.61 290.35 -0.61 300.03 1.35 19.84 4.04 34.78 12.12 48.98 26.45 9.67 9.80 15.43 18.49 20.45 30.62 6.61 16.53 6.49 11.63 6.74 184.18 0.24 87.93 0.12 159.93 -0.24 159.81 -0.37 0 -2.45 -3.80 -4.65 -8.45 -7.10 -15.06 -23.15 -38.21 -37.23 -53.76 l-7.10 -7.72 0 -57.43 0 -57.43 -325.13 0 -325.13 0 0.24 215.29 0.37 215.16 2.82 7.59 c8.33 22.04 26.21 37.23 48 40.66 5.14 0.86 54.62 1.35 139.36 1.35 l131.28 0 7.72 5.88 c11.02 8.69 24.49 17.51 36.37 23.88 10.65 5.76 37.47 16.78 40.90 16.78 0.98 0 2.20 0.61 2.57 1.22 0.98 1.47 -351.22 1.47 -362.85 -0.12z m603.12 -616.71 c-0.24 -31.47 -0.86 -46.41 -1.84 -49.60 -3.92 -11.39 -15.92 -23.39 -27.80 -27.55 -5.76 -2.08 -22.66 -2.20 -293.29 -2.20 l-287.17 0 -7.10 2.82 c-13.35 5.39 -23.76 16.16 -29.51 30.13 -2.33 5.88 -2.57 9.06 -2.94 48.86 l-0.37 42.49 325.26 0 325.26 0 -0.49 -44.94z" />
  <path d="M348.77 357.59 c-11.27 -3.31 -18.12 -12.37 -18.12 -23.76 0 -8.45 3.06 -15.19 9.06 -19.72 3.43 -2.57 6.12 -3.43 13.47 -3.92 8.33 -0.61 9.55 -0.37 14.57 2.45 10.29 6.12 14.82 20.94 9.55 31.35 -5.76 11.02 -17.76 16.90 -28.53 13.59z" />
  <path d="M437.92 356.97 c-9.43 -3.43 -14.57 -9.31 -16.78 -19.10 -2.08 -9.18 3.06 -20.45 11.63 -25.72 5.63 -3.43 19.47 -3.31 25.47 0.49 13.72 8.33 16.04 26.33 4.90 37.96 -6.61 6.98 -16.78 9.55 -25.23 6.37z" />
  <path d="M529.28 357.71 c-20.45 -5.14 -25.47 -33.19 -7.84 -44.33 4.78 -3.06 6.86 -3.55 13.96 -3.55 11.63 0 17.39 3.43 22.29 13.10 4.16 8.20 1.59 22.90 -4.90 28.66 -6.12 5.39 -16.04 7.96 -23.51 6.12z" />
 </g>
 <g fill="#0baf58">
  <path d="M397.51 881.11 c-40.29 -7.72 -72.13 -40.41 -77.89 -80.09 -4.41 -30 5.88 -61.11 27.43 -82.54 11.27 -11.27 21.92 -18 38.09 -23.63 9.06 -3.31 11.14 -3.55 28.78 -3.55 20.45 0 27.19 1.47 42.25 8.94 53.88 26.70 70.42 96.87 34.17 144.38 -21.68 28.29 -58.78 42.86 -92.83 36.49z m37.47 -7.84 c5.14 -1.35 12.12 -3.80 15.55 -5.51 3.43 -1.71 6.74 -3.18 7.47 -3.18 2.57 0 19.84 -14.94 25.23 -21.92 15.31 -19.35 22.53 -45.56 18.86 -67.60 -1.96 -11.63 -6.98 -25.96 -12.37 -34.90 -11.88 -19.96 -34.17 -36.13 -56.82 -41.02 -10.29 -2.20 -30.13 -1.96 -39.80 0.49 -4.41 1.22 -12.61 4.41 -18.37 7.23 -8.57 4.16 -12.49 7.10 -22.04 16.78 -9.55 9.55 -12.74 13.72 -16.90 22.17 -17.14 34.41 -12.49 72.25 12.49 100.66 8.33 9.55 22.78 19.23 35.02 23.63 16.16 5.88 36.25 7.10 51.68 3.18z" />
  <path d="M386 850.37 c-4.16 -2.82 -3.43 -7.59 4.29 -27.92 6.86 -18.12 6.98 -18.86 7.47 -32.82 0.24 -7.96 0.12 -14.45 -0.24 -14.45 -2.33 0 -27.92 -4.04 -31.59 -5.02 -6.98 -1.84 -9.43 -8.45 -4.65 -12.74 2.69 -2.45 6.86 -2.33 34.90 0.73 15.31 1.59 35.39 0.86 53.76 -2.08 13.59 -2.20 17.14 -1.47 19.10 3.92 1.22 3.31 0.37 6.25 -2.82 8.82 -0.98 0.86 -8.69 2.57 -17.14 3.80 -8.57 1.35 -16.04 2.82 -16.78 3.18 -0.73 0.37 -1.22 6.12 -1.22 12.98 0 11.63 0.24 13.10 7.35 33.80 4.04 11.88 7.35 22.29 7.35 23.15 0 3.18 -4.78 6.61 -9.18 6.61 -5.51 0 -6.74 -1.96 -14.82 -23.27 -4.04 -10.78 -6.49 -15.80 -7.72 -15.68 -0.98 0.24 -4.65 7.96 -8.33 17.51 -3.67 9.43 -7.59 18.12 -8.57 19.35 -2.45 2.57 -7.47 2.69 -11.14 0.12z" />
  <path d="M409.75 751.91 c-12 -3.80 -15.06 -19.35 -5.51 -27.55 3.06 -2.45 5.02 -3.06 10.90 -3.06 6.61 0 7.35 0.37 10.78 4.29 5.02 5.63 6 11.39 3.18 17.27 -3.92 7.84 -11.63 11.51 -19.35 9.06z" />
  <path d="M723.13 801.02 c-6.74 -3.18 -62.46 -58.29 -64.90 -64.17 -2.45 -5.88 -2.33 -10.16 0.49 -16.16 3.06 -6.74 8.69 -11.27 15.31 -12.25 10.53 -1.59 12 -0.61 35.15 22.17 11.76 11.76 21.68 21.31 22.04 21.31 0.37 0 21.55 -20.94 47.15 -46.66 25.47 -25.59 48.13 -47.51 50.09 -48.62 2.08 -1.10 6.74 -1.96 10.53 -1.96 5.63 -0.12 7.59 0.49 11.27 3.31 2.45 1.84 5.39 5.14 6.49 7.23 2.45 4.90 2.57 14.21 0.12 18.86 -2.94 5.63 -112.30 115.73 -116.83 117.68 -5.39 2.20 -11.14 1.96 -16.90 -0.73z" />
 </g>
</svg>